# xmcd CD database file
#
# Track frame offsets:
#	150
#	21425
#	58486
#	98999
#	141581
#	171202
#	203450
#	227232
#
# Disc length: 3158 seconds
#
# Revision: 0
# Processed by: cddbd v1.4PL0 Copyright (c) Steve Scherf et al.
# Submitted via: CDex 1.51
#
DISCID=760c5408
DTITLE=François Chassagnite quartet - Un poco loco
DYEAR=1900
DGENRE=Jazz
TTITLE0=Phalène
TTITLE1=The bill please
TTITLE2=Boire et déboire
TTITLE3=Un poco loco
TTITLE4=Lotfi's tune
TTITLE5=Absence
TTITLE6=Keskidi
TTITLE7=Bass Ballad
EXTD=
EXTT0=
EXTT1=
EXTT2=
EXTT3=
EXTT4=
EXTT5=
EXTT6=
EXTT7=
PLAYORDER=
